<svg id="svg" version="1.1" xmlns="http://www.w3.org/2000/svg" xmlns:xlink="http://www.w3.org/1999/xlink" width="400" height="400" viewBox="0, 0, 400,400"><g id="svgg"><path id="path0" d="M294.100 31.876 C 294.485 31.976,295.115 31.976,295.500 31.876 C 295.885 31.775,295.570 31.693,294.800 31.693 C 294.030 31.693,293.715 31.775,294.100 31.876 M298.500 31.876 C 298.885 31.976,299.515 31.976,299.900 31.876 C 300.285 31.775,299.970 31.693,299.200 31.693 C 298.430 31.693,298.115 31.775,298.500 31.876 M272.392 43.900 L 268.600 47.800 272.500 44.008 C 274.645 41.922,276.400 40.167,276.400 40.108 C 276.400 39.818,275.914 40.278,272.392 43.900 M264.192 52.100 L 260.200 56.200 264.300 52.208 C 268.108 48.499,268.582 48.000,268.292 48.000 C 268.233 48.000,266.388 49.845,264.192 52.100 M266.783 64.100 C 267.764 65.145,268.619 66.000,268.683 66.000 C 268.984 66.000,268.666 65.641,266.900 63.983 L 265.000 62.200 266.783 64.100 M277.000 74.400 C 279.192 76.600,281.075 78.400,281.185 78.400 C 281.295 78.400,279.592 76.600,277.400 74.400 C 275.208 72.200,273.325 70.400,273.215 70.400 C 273.105 70.400,274.808 72.200,277.000 74.400 M285.583 82.900 C 286.564 83.945,287.419 84.800,287.483 84.800 C 287.784 84.800,287.466 84.441,285.700 82.783 L 283.800 81.000 285.583 82.900 M292.870 90.300 C 293.381 90.905,294.880 92.384,296.200 93.586 C 298.073 95.292,297.899 95.050,295.409 92.486 C 292.180 89.160,291.170 88.291,292.870 90.300 M300.033 97.700 C 300.125 97.755,300.740 98.250,301.400 98.800 L 302.600 99.800 301.630 98.700 C 301.097 98.095,300.482 97.600,300.264 97.600 C 300.045 97.600,299.942 97.645,300.033 97.700 M307.634 105.047 C 308.165 105.733,308.680 106.223,308.779 106.135 C 308.877 106.047,308.443 105.486,307.813 104.888 L 306.669 103.800 307.634 105.047 M309.200 106.532 C 309.200 106.940,312.014 109.719,312.219 109.514 C 312.311 109.423,311.669 108.648,310.793 107.793 C 309.917 106.937,309.200 106.370,309.200 106.532 M134.291 182.349 C 93.641 222.967,60.386 256.310,60.391 256.445 C 60.396 256.579,60.871 256.599,61.446 256.489 C 62.387 256.309,64.642 256.603,70.000 257.605 C 70.990 257.790,73.240 258.148,75.000 258.400 C 76.760 258.652,79.010 259.012,80.000 259.199 C 83.547 259.870,86.714 260.412,94.200 261.628 C 106.505 263.629,105.741 262.431,106.000 280.129 L 106.200 293.800 119.400 293.904 C 138.278 294.053,136.096 291.865,139.650 314.200 C 139.860 315.520,140.204 317.590,140.415 318.800 C 140.626 320.010,140.985 322.170,141.214 323.600 C 141.442 325.030,141.810 327.280,142.031 328.600 C 142.751 332.892,143.169 335.371,143.431 336.906 C 143.593 337.849,143.510 338.626,143.210 338.988 C 142.947 339.305,142.855 339.765,143.006 340.010 C 143.169 340.273,173.472 310.205,217.450 266.141 L 291.619 191.827 290.109 191.060 C 286.983 189.470,282.898 185.541,247.970 150.522 C 212.640 115.102,210.447 112.822,208.954 109.949 L 208.200 108.497 134.291 182.349 M312.433 110.100 C 312.525 110.155,313.140 110.650,313.800 111.200 L 315.000 112.200 314.030 111.100 C 313.497 110.495,312.882 110.000,312.664 110.000 C 312.445 110.000,312.342 110.045,312.433 110.100 M316.783 114.100 C 317.764 115.145,318.619 116.000,318.683 116.000 C 318.984 116.000,318.666 115.641,316.900 113.983 L 315.000 112.200 316.783 114.100 M319.926 117.512 C 320.516 118.124,321.076 118.574,321.168 118.511 C 321.399 118.355,319.535 116.400,319.156 116.400 C 318.988 116.400,319.335 116.901,319.926 117.512 M352.400 130.854 C 346.570 136.768,341.891 141.605,342.003 141.603 C 342.236 141.600,361.454 122.264,362.581 120.900 C 364.184 118.959,362.616 120.491,352.400 130.854 M323.200 120.516 C 323.200 120.916,329.218 126.916,329.418 126.715 C 329.505 126.628,328.141 125.131,326.388 123.388 C 324.635 121.645,323.200 120.352,323.200 120.516 M334.844 132.500 C 336.856 134.535,339.197 137.280,340.047 138.600 C 341.504 140.863,342.191 141.446,341.100 139.495 C 339.716 137.019,332.333 128.800,331.493 128.800 C 331.324 128.800,332.832 130.465,334.844 132.500 M50.800 321.969 C 50.800 322.099,56.875 328.252,64.300 335.644 C 76.384 347.673,79.477 350.400,81.040 350.400 C 81.621 350.400,80.470 349.497,79.056 348.843 C 78.292 348.489,71.622 342.245,64.233 334.967 C 56.845 327.689,50.800 321.840,50.800 321.969 " stroke="none" fill="#e89878" fill-rule="evenodd"></path><path id="path1" d="M97.001 12.399 C 96.864 12.619,96.324 12.800,95.800 12.800 C 95.276 12.800,94.736 12.980,94.600 13.200 C 94.464 13.420,94.003 13.600,93.576 13.600 C 93.149 13.600,92.800 13.780,92.800 14.000 C 92.800 14.220,92.480 14.400,92.088 14.400 C 91.697 14.400,91.117 14.760,90.800 15.200 C 90.483 15.640,89.989 16.000,89.703 16.000 C 89.025 16.000,84.800 20.225,84.800 20.903 C 84.800 21.189,84.440 21.683,84.000 22.000 C 83.560 22.317,83.200 22.897,83.200 23.288 C 83.200 23.680,83.020 24.000,82.800 24.000 C 82.580 24.000,82.400 24.360,82.400 24.800 C 82.400 25.240,82.259 25.600,82.087 25.600 C 81.915 25.600,81.734 26.087,81.685 26.682 C 81.636 27.278,81.416 27.944,81.198 28.162 C 80.663 28.697,80.665 40.800,81.200 40.800 C 81.420 40.800,81.600 41.239,81.600 41.776 C 81.600 42.313,81.780 42.864,82.000 43.000 C 82.220 43.136,82.400 43.597,82.400 44.024 C 82.400 44.451,82.580 44.800,82.800 44.800 C 83.020 44.800,83.200 45.120,83.200 45.512 C 83.200 45.903,83.560 46.483,84.000 46.800 C 84.440 47.117,84.800 47.583,84.800 47.835 C 84.800 48.495,89.028 52.800,89.677 52.800 C 89.978 52.800,90.483 53.160,90.800 53.600 C 91.117 54.040,91.697 54.400,92.088 54.400 C 92.480 54.400,92.800 54.580,92.800 54.800 C 92.800 55.020,93.149 55.200,93.576 55.200 C 94.003 55.200,94.464 55.380,94.600 55.600 C 94.736 55.820,95.251 56.000,95.744 56.000 C 96.237 56.000,96.811 56.166,97.020 56.369 C 97.229 56.573,99.560 56.829,102.200 56.939 C 107.929 57.178,111.652 57.572,112.200 57.998 C 112.420 58.169,113.365 58.436,114.300 58.590 C 115.235 58.744,116.000 59.034,116.000 59.235 C 116.000 59.436,116.360 59.600,116.800 59.600 C 117.240 59.600,117.600 59.780,117.600 60.000 C 117.600 60.220,117.920 60.400,118.312 60.400 C 118.703 60.400,119.283 60.760,119.600 61.200 C 119.917 61.640,120.411 62.000,120.697 62.000 C 121.322 62.000,125.344 66.012,125.532 66.822 C 125.605 67.136,125.797 67.484,125.960 67.596 C 126.354 67.868,128.952 73.416,129.555 75.275 C 130.159 77.136,130.216 86.344,129.627 86.933 C 129.392 87.168,129.200 87.864,129.200 88.480 C 129.200 89.096,129.020 89.600,128.800 89.600 C 128.580 89.600,128.400 89.960,128.400 90.400 C 128.400 90.840,128.209 91.200,127.976 91.200 C 127.743 91.200,127.655 91.365,127.780 91.568 C 127.905 91.770,127.736 92.207,127.404 92.539 C 127.072 92.871,126.800 93.406,126.800 93.729 C 126.800 94.051,126.530 94.418,126.200 94.545 C 125.870 94.671,125.600 95.032,125.600 95.347 C 125.600 96.072,122.118 99.649,120.457 100.630 C 119.766 101.038,119.200 101.514,119.200 101.686 C 119.200 101.859,118.840 102.000,118.400 102.000 C 117.960 102.000,117.599 102.135,117.597 102.300 C 117.593 102.659,115.656 103.600,114.920 103.600 C 114.634 103.600,114.400 103.780,114.400 104.000 C 114.400 104.220,113.871 104.400,113.224 104.400 C 112.577 104.400,111.936 104.580,111.800 104.800 C 111.664 105.020,110.303 105.200,108.776 105.200 C 107.192 105.200,106.000 105.372,106.000 105.600 C 106.000 105.864,92.067 106.000,65.000 106.000 C 37.933 106.000,24.000 106.136,24.000 106.400 C 24.000 106.620,23.280 106.800,22.400 106.800 C 21.520 106.800,20.800 106.980,20.800 107.200 C 20.800 107.420,20.386 107.600,19.880 107.600 C 19.374 107.600,18.789 107.750,18.580 107.934 C 18.371 108.118,17.345 108.582,16.300 108.967 C 15.255 109.352,14.400 109.831,14.400 110.033 C 14.400 110.235,14.175 110.403,13.900 110.407 C 12.863 110.422,6.000 116.749,6.000 117.690 C 6.000 117.983,5.640 118.483,5.200 118.800 C 4.760 119.117,4.400 119.657,4.400 120.000 C 4.400 120.343,4.040 120.883,3.600 121.200 C 3.160 121.517,2.800 122.001,2.800 122.276 C 2.800 122.551,2.440 123.417,2.000 124.200 C 1.560 124.983,1.200 125.964,1.200 126.379 C 1.200 126.794,0.975 127.208,0.700 127.300 C -0.025 127.542,-0.025 147.658,0.700 147.900 C 0.975 147.992,1.200 148.324,1.200 148.639 C 1.200 148.953,1.360 149.523,1.556 149.905 C 1.752 150.287,2.320 151.455,2.819 152.500 C 3.318 153.545,3.877 154.400,4.063 154.400 C 4.248 154.400,4.400 154.720,4.400 155.112 C 4.400 155.503,4.760 156.083,5.200 156.400 C 5.640 156.717,6.000 157.118,6.000 157.291 C 6.000 157.728,11.036 162.800,11.471 162.800 C 11.665 162.800,12.083 163.160,12.400 163.600 C 12.717 164.040,13.297 164.400,13.688 164.400 C 14.080 164.400,14.400 164.547,14.400 164.726 C 14.400 165.192,17.531 166.800,18.438 166.800 C 18.857 166.800,19.200 166.980,19.200 167.200 C 19.200 167.420,19.560 167.600,20.000 167.600 C 20.440 167.600,20.800 167.780,20.800 168.000 C 20.800 168.220,21.520 168.400,22.400 168.400 C 23.280 168.400,24.000 168.580,24.000 168.800 C 24.000 169.051,26.533 169.200,30.800 169.200 C 35.067 169.200,37.600 169.349,37.600 169.600 C 37.600 169.828,38.792 170.000,40.376 170.000 C 41.903 170.000,43.264 170.180,43.400 170.400 C 43.536 170.620,43.962 170.800,44.347 170.800 C 44.995 170.800,48.376 172.410,51.546 174.228 C 53.310 175.240,56.800 178.599,56.800 179.286 C 56.800 179.581,57.160 180.083,57.600 180.400 C 58.040 180.717,58.400 181.202,58.400 181.477 C 58.400 181.753,58.823 182.928,59.339 184.089 C 59.856 185.250,60.486 186.843,60.739 187.628 C 61.308 189.393,61.358 199.055,60.800 199.400 C 60.580 199.536,60.400 200.053,60.400 200.549 C 60.400 201.045,59.950 202.383,59.400 203.523 C 58.850 204.663,58.400 205.827,58.400 206.110 C 58.400 206.392,58.040 206.883,57.600 207.200 C 57.160 207.517,56.800 207.929,56.800 208.114 C 56.800 208.612,52.973 212.253,51.591 213.069 C 50.936 213.456,50.400 213.914,50.400 214.086 C 50.400 214.259,50.040 214.400,49.600 214.400 C 49.160 214.400,48.800 214.580,48.800 214.800 C 48.800 215.020,48.440 215.200,48.000 215.200 C 47.560 215.200,47.200 215.380,47.200 215.600 C 47.200 215.820,46.840 216.000,46.400 216.000 C 45.960 216.000,45.600 216.180,45.600 216.400 C 45.600 216.620,45.071 216.800,44.424 216.800 C 43.777 216.800,43.136 216.980,43.000 217.200 C 42.864 217.420,41.503 217.600,39.976 217.600 C 38.392 217.600,37.200 217.772,37.200 218.000 C 37.200 218.247,35.133 218.400,31.800 218.400 C 28.467 218.400,26.400 218.553,26.400 218.800 C 26.400 219.020,25.860 219.200,25.200 219.200 C 24.540 219.200,24.000 219.380,24.000 219.600 C 24.000 219.820,23.460 220.000,22.800 220.000 C 22.140 220.000,21.600 220.180,21.600 220.400 C 21.600 220.620,21.060 220.800,20.400 220.800 C 19.740 220.800,19.200 220.980,19.200 221.200 C 19.200 221.420,18.922 221.600,18.583 221.600 C 18.244 221.600,17.580 221.960,17.108 222.400 C 16.636 222.840,16.013 223.200,15.725 223.200 C 15.436 223.200,15.200 223.380,15.200 223.600 C 15.200 223.820,14.963 224.000,14.674 224.000 C 14.005 224.000,8.400 228.698,8.400 229.259 C 8.400 229.490,7.860 230.183,7.200 230.800 C 6.540 231.417,6.000 232.129,6.000 232.384 C 6.000 232.639,5.820 232.736,5.600 232.600 C 5.380 232.464,5.200 232.723,5.200 233.176 C 5.200 233.629,5.020 234.000,4.800 234.000 C 4.580 234.000,4.400 234.236,4.400 234.525 C 4.400 234.813,4.040 235.436,3.600 235.908 C 3.160 236.380,2.800 237.033,2.800 237.360 C 2.800 237.686,2.620 238.064,2.400 238.200 C 2.180 238.336,2.000 238.887,2.000 239.424 C 2.000 239.961,1.820 240.400,1.600 240.400 C 1.380 240.400,1.200 240.835,1.200 241.367 C 1.200 241.898,0.975 242.408,0.700 242.500 C -0.022 242.740,-0.022 262.938,0.700 263.660 C 0.975 263.935,1.200 264.574,1.200 265.080 C 1.200 265.586,1.380 266.000,1.600 266.000 C 1.820 266.000,2.000 266.324,2.000 266.720 C 2.000 267.614,2.894 269.593,3.300 269.597 C 3.465 269.599,3.600 269.790,3.600 270.022 C 3.600 270.683,6.624 274.934,7.559 275.588 C 8.022 275.912,8.400 276.388,8.400 276.646 C 8.400 276.905,8.805 277.486,9.300 277.938 C 9.795 278.390,10.980 279.489,11.933 280.380 C 12.886 281.271,13.818 282.000,14.004 282.000 C 14.190 282.000,14.588 282.225,14.887 282.500 C 15.186 282.775,15.854 283.242,16.370 283.538 C 19.429 285.288,20.101 285.600,20.812 285.600 C 21.245 285.600,21.600 285.780,21.600 286.000 C 21.600 286.220,22.140 286.400,22.800 286.400 C 23.460 286.400,24.000 286.560,24.000 286.756 C 24.000 287.743,51.868 288.540,53.017 287.586 C 53.305 287.347,53.652 285.947,53.786 284.475 C 53.921 283.004,54.206 280.270,54.421 278.400 C 54.636 276.530,54.987 273.470,55.200 271.600 C 56.039 264.254,56.447 260.963,56.624 260.113 C 56.729 259.609,89.372 226.681,132.268 183.811 L 207.727 108.396 207.163 106.098 C 205.672 100.014,206.764 93.021,209.971 88.124 C 213.256 83.109,236.549 60.727,240.400 58.886 C 245.985 56.215,252.749 55.736,257.071 57.705 C 257.960 58.110,258.654 57.504,268.110 48.069 C 281.178 35.030,283.578 33.420,292.400 31.775 C 299.624 30.428,307.262 32.236,314.200 36.935 C 314.860 37.382,319.735 42.034,325.033 47.274 C 330.332 52.513,334.922 56.825,335.233 56.857 C 337.226 57.056,346.668 56.658,346.980 56.361 C 347.189 56.163,347.864 56.000,348.480 56.000 C 349.096 56.000,349.600 55.820,349.600 55.600 C 349.600 55.380,349.960 55.200,350.400 55.200 C 350.840 55.200,351.200 55.020,351.200 54.800 C 351.200 54.580,351.560 54.400,352.000 54.400 C 352.440 54.400,352.800 54.220,352.800 54.000 C 352.800 53.780,353.052 53.600,353.359 53.600 C 354.239 53.600,359.600 48.085,359.600 47.180 C 359.600 46.953,359.960 46.380,360.400 45.908 C 360.840 45.436,361.200 44.633,361.200 44.125 C 361.200 43.616,361.380 43.200,361.600 43.200 C 361.820 43.200,362.000 42.761,362.000 42.224 C 362.000 41.687,362.180 41.136,362.400 41.000 C 362.640 40.852,362.800 38.196,362.800 34.376 C 362.800 30.392,362.650 28.000,362.400 28.000 C 362.180 28.000,362.000 27.460,362.000 26.800 C 362.000 26.140,361.820 25.600,361.600 25.600 C 361.380 25.600,361.200 25.240,361.200 24.800 C 361.200 24.360,361.020 24.000,360.800 24.000 C 360.580 24.000,360.400 23.680,360.400 23.288 C 360.400 22.897,360.040 22.317,359.600 22.000 C 359.160 21.683,358.800 21.182,358.800 20.888 C 358.800 20.283,354.879 16.000,354.325 16.000 C 354.128 16.000,353.580 15.640,353.108 15.200 C 352.636 14.760,352.013 14.400,351.725 14.400 C 351.436 14.400,351.200 14.220,351.200 14.000 C 351.200 13.780,350.750 13.600,350.200 13.600 C 349.650 13.600,349.200 13.440,349.200 13.245 C 349.200 13.050,348.615 12.748,347.900 12.573 C 345.908 12.085,97.301 11.913,97.001 12.399 M363.355 120.300 C 362.530 121.345,357.446 126.644,352.056 132.075 L 342.256 141.950 342.828 143.675 C 343.609 146.029,343.597 154.001,342.809 156.400 C 341.069 161.695,340.013 162.978,325.600 177.310 C 312.525 190.312,312.314 190.484,306.600 192.826 C 303.470 194.108,294.866 194.055,293.420 192.745 C 293.211 192.555,292.761 192.400,292.420 192.400 C 292.078 192.400,257.890 226.309,216.446 267.754 C 155.756 328.445,140.812 343.190,139.647 343.531 C 138.851 343.764,134.780 344.328,130.600 344.784 C 126.420 345.240,119.760 345.973,115.800 346.413 C 111.840 346.852,105.180 347.579,101.000 348.029 C 96.820 348.478,91.870 349.023,90.000 349.239 C 88.130 349.456,85.520 349.739,84.200 349.870 C 82.880 350.000,81.575 350.284,81.300 350.502 C 80.681 350.992,80.590 359.823,81.200 360.200 C 81.420 360.336,81.600 360.977,81.600 361.624 C 81.600 362.271,81.780 362.800,82.000 362.800 C 82.220 362.800,82.400 363.143,82.400 363.562 C 82.400 364.378,84.001 367.712,84.500 367.933 C 84.665 368.007,84.800 368.322,84.800 368.633 C 84.800 368.945,84.980 369.200,85.200 369.200 C 85.420 369.200,85.600 369.470,85.600 369.800 C 85.600 370.130,85.780 370.400,86.000 370.400 C 86.220 370.400,86.400 370.592,86.400 370.826 C 86.400 371.193,88.228 373.053,91.486 375.999 C 91.973 376.440,92.558 376.800,92.786 376.800 C 93.014 376.800,93.200 376.980,93.200 377.200 C 93.200 377.420,93.455 377.600,93.767 377.600 C 94.078 377.600,94.393 377.735,94.467 377.900 C 94.688 378.399,98.022 380.000,98.838 380.000 C 99.257 380.000,99.600 380.180,99.600 380.400 C 99.600 380.620,100.129 380.800,100.776 380.800 C 101.423 380.800,102.064 380.980,102.200 381.200 C 102.364 381.465,144.204 381.600,226.424 381.600 C 308.808 381.600,350.400 381.466,350.400 381.200 C 350.400 380.980,350.940 380.800,351.600 380.800 C 352.260 380.800,352.800 380.620,352.800 380.400 C 352.800 380.180,353.143 380.000,353.562 380.000 C 354.469 380.000,357.600 378.392,357.600 377.926 C 357.600 377.747,357.777 377.600,357.993 377.600 C 358.836 377.600,364.734 371.916,365.568 370.300 C 365.880 369.695,366.285 369.200,366.468 369.200 C 366.650 369.200,366.800 368.840,366.800 368.400 C 366.800 367.960,366.980 367.600,367.200 367.600 C 367.420 367.600,367.600 367.060,367.600 366.400 C 367.600 365.740,367.780 365.200,368.000 365.200 C 368.220 365.200,368.400 364.660,368.400 364.000 C 368.400 363.340,368.580 362.800,368.800 362.800 C 369.051 362.800,369.200 360.333,369.200 356.200 C 369.200 352.067,369.051 349.600,368.800 349.600 C 368.580 349.600,368.400 349.060,368.400 348.400 C 368.400 347.740,368.220 347.200,368.000 347.200 C 367.780 347.200,367.600 346.857,367.600 346.438 C 367.600 345.531,365.992 342.400,365.526 342.400 C 365.347 342.400,365.200 342.218,365.200 341.996 C 365.200 341.774,364.660 341.028,364.000 340.337 C 363.340 339.646,362.800 338.904,362.800 338.687 C 362.800 338.226,360.763 336.401,360.247 336.400 C 360.053 336.400,359.603 336.076,359.247 335.681 C 358.245 334.567,356.146 333.200,355.438 333.200 C 355.087 333.200,354.800 333.020,354.800 332.800 C 354.800 332.580,354.350 332.400,353.800 332.400 C 353.250 332.400,352.800 332.220,352.800 332.000 C 352.800 331.780,352.260 331.600,351.600 331.600 C 350.940 331.600,350.400 331.420,350.400 331.200 C 350.400 330.938,342.267 330.800,326.800 330.800 C 313.820 330.800,303.200 330.650,303.200 330.466 C 303.200 330.282,302.075 330.092,300.700 330.043 C 299.325 329.995,298.140 329.785,298.067 329.578 C 297.993 329.370,297.408 329.200,296.767 329.200 C 296.125 329.200,295.600 329.020,295.600 328.800 C 295.600 328.580,295.366 328.400,295.080 328.400 C 294.344 328.400,292.407 327.459,292.403 327.100 C 292.401 326.935,292.146 326.800,291.837 326.800 C 291.050 326.800,285.600 321.413,285.600 320.636 C 285.600 320.286,285.420 320.000,285.200 320.000 C 284.980 320.000,284.800 319.640,284.800 319.200 C 284.800 318.760,284.620 318.400,284.400 318.400 C 284.180 318.400,284.000 318.040,284.000 317.600 C 284.000 317.160,283.820 316.800,283.600 316.800 C 283.380 316.800,283.200 316.260,283.200 315.600 C 283.200 314.940,283.020 314.400,282.800 314.400 C 282.555 314.400,282.400 312.475,282.400 309.424 C 282.400 306.537,282.568 304.343,282.800 304.200 C 283.020 304.064,283.200 303.513,283.200 302.976 C 283.200 302.439,283.380 302.000,283.600 302.000 C 283.820 302.000,284.000 301.640,284.000 301.200 C 284.000 300.760,284.180 300.400,284.400 300.400 C 284.620 300.400,284.800 300.040,284.800 299.600 C 284.800 299.160,284.980 298.800,285.200 298.800 C 285.420 298.800,285.600 298.521,285.600 298.181 C 285.600 296.255,294.275 289.600,296.785 289.600 C 297.207 289.600,297.664 289.420,297.800 289.200 C 297.936 288.980,299.106 288.800,300.400 288.800 C 301.694 288.800,302.864 288.620,303.000 288.400 C 303.162 288.138,316.737 288.000,342.424 288.000 C 368.275 288.000,381.600 287.864,381.600 287.600 C 381.600 287.380,382.140 287.200,382.800 287.200 C 383.460 287.200,384.000 287.020,384.000 286.800 C 384.000 286.580,384.343 286.400,384.762 286.400 C 385.669 286.400,388.800 284.792,388.800 284.326 C 388.800 284.147,389.055 284.000,389.366 284.000 C 389.677 284.000,390.442 283.460,391.065 282.800 C 391.688 282.140,392.346 281.600,392.527 281.600 C 392.974 281.600,394.000 280.546,394.000 280.088 C 394.000 279.885,394.495 279.194,395.100 278.552 C 395.705 277.911,396.455 276.894,396.768 276.293 C 397.080 275.692,397.485 275.200,397.668 275.200 C 397.850 275.200,398.000 274.840,398.000 274.400 C 398.000 273.960,398.180 273.600,398.400 273.600 C 398.620 273.600,398.800 273.165,398.800 272.633 C 398.800 272.102,399.025 271.592,399.300 271.500 C 399.680 271.373,399.800 269.231,399.800 262.600 C 399.800 255.969,399.680 253.827,399.300 253.700 C 399.025 253.608,398.800 253.194,398.800 252.779 C 398.800 252.364,398.457 251.414,398.038 250.667 C 397.618 249.920,397.033 248.882,396.738 248.359 C 396.442 247.836,395.885 247.116,395.500 246.757 C 395.115 246.399,394.800 245.999,394.800 245.869 C 394.800 245.306,390.223 241.200,389.595 241.200 C 389.378 241.200,389.200 241.020,389.200 240.800 C 389.200 240.580,388.930 240.400,388.600 240.400 C 388.270 240.400,388.000 240.220,388.000 240.000 C 388.000 239.780,387.640 239.600,387.200 239.600 C 386.760 239.600,386.400 239.420,386.400 239.200 C 386.400 238.980,385.860 238.800,385.200 238.800 C 384.540 238.800,384.000 238.620,384.000 238.400 C 384.000 238.180,383.460 238.000,382.800 238.000 C 382.140 238.000,381.600 237.820,381.600 237.600 C 381.600 237.347,378.741 237.200,373.824 237.200 C 369.071 237.200,365.951 237.044,365.800 236.800 C 365.664 236.580,364.213 236.400,362.576 236.400 C 360.859 236.400,359.600 236.231,359.600 236.000 C 359.600 235.780,359.071 235.600,358.424 235.600 C 357.777 235.600,357.136 235.420,357.000 235.200 C 356.864 234.980,356.403 234.800,355.976 234.800 C 355.549 234.800,355.200 234.620,355.200 234.400 C 355.200 234.180,354.840 234.000,354.400 234.000 C 353.960 234.000,353.600 233.820,353.600 233.600 C 353.600 233.380,353.240 233.200,352.800 233.200 C 352.360 233.200,352.000 233.020,352.000 232.800 C 352.000 232.580,351.773 232.400,351.496 232.400 C 350.417 232.400,342.400 224.780,342.400 223.755 C 342.400 223.450,342.220 223.200,342.000 223.200 C 341.780 223.200,341.600 222.912,341.600 222.560 C 341.600 221.964,340.808 219.902,339.966 218.305 C 339.765 217.923,339.600 217.194,339.600 216.685 C 339.600 216.176,339.412 215.572,339.182 215.342 C 338.619 214.779,338.615 204.025,339.178 203.462 C 339.410 203.230,339.600 202.624,339.600 202.115 C 339.600 201.606,339.765 200.877,339.966 200.495 C 340.808 198.898,341.600 196.836,341.600 196.240 C 341.600 195.888,341.780 195.600,342.000 195.600 C 342.220 195.600,342.400 195.349,342.400 195.042 C 342.400 194.045,350.344 186.400,351.380 186.400 C 351.684 186.400,351.993 186.265,352.067 186.100 C 352.140 185.935,353.100 185.375,354.200 184.856 C 355.300 184.337,356.513 183.752,356.895 183.556 C 357.277 183.360,358.042 183.200,358.595 183.200 C 359.148 183.200,359.600 183.020,359.600 182.800 C 359.600 182.569,360.859 182.400,362.576 182.400 C 364.213 182.400,365.664 182.220,365.800 182.000 C 365.943 181.768,368.137 181.600,371.024 181.600 C 374.075 181.600,376.000 181.445,376.000 181.200 C 376.000 180.980,376.720 180.800,377.600 180.800 C 378.480 180.800,379.200 180.620,379.200 180.400 C 379.200 180.180,379.472 180.000,379.805 180.000 C 380.138 180.000,380.768 179.820,381.205 179.600 C 381.642 179.380,382.358 179.020,382.795 178.800 C 383.232 178.580,383.822 178.400,384.106 178.400 C 384.391 178.400,384.883 178.040,385.200 177.600 C 385.517 177.160,386.057 176.800,386.400 176.800 C 386.743 176.800,387.283 176.440,387.600 176.000 C 387.917 175.560,388.362 175.199,388.588 175.198 C 389.309 175.194,394.000 170.414,394.000 169.684 C 394.000 169.515,394.360 169.117,394.800 168.800 C 395.240 168.483,395.600 167.943,395.600 167.600 C 395.600 167.257,395.960 166.717,396.400 166.400 C 396.840 166.083,397.200 165.503,397.200 165.112 C 397.200 164.720,397.380 164.400,397.600 164.400 C 397.820 164.400,398.000 163.961,398.000 163.424 C 398.000 162.887,398.180 162.336,398.400 162.200 C 398.620 162.064,398.800 161.618,398.800 161.210 C 398.800 160.801,399.025 160.392,399.300 160.300 C 399.682 160.172,399.800 157.751,399.800 150.000 C 399.800 142.249,399.682 139.827,399.300 139.700 C 399.025 139.608,398.800 139.199,398.800 138.790 C 398.800 138.382,398.620 137.936,398.400 137.800 C 398.180 137.664,398.000 137.113,398.000 136.576 C 398.000 136.039,397.820 135.600,397.600 135.600 C 397.380 135.600,397.200 135.280,397.200 134.888 C 397.200 134.497,396.840 133.917,396.400 133.600 C 395.960 133.283,395.600 132.743,395.600 132.400 C 395.600 132.057,395.240 131.517,394.800 131.200 C 394.360 130.883,394.000 130.400,394.000 130.126 C 394.000 129.526,389.214 124.800,388.606 124.800 C 388.370 124.800,387.917 124.440,387.600 124.000 C 387.283 123.560,386.743 123.200,386.400 123.200 C 386.057 123.200,385.517 122.840,385.200 122.400 C 384.883 121.960,384.303 121.600,383.912 121.600 C 383.520 121.600,383.200 121.420,383.200 121.200 C 383.200 120.980,382.851 120.800,382.424 120.800 C 381.997 120.800,381.536 120.620,381.400 120.400 C 381.264 120.180,380.713 120.000,380.176 120.000 C 379.639 120.000,379.200 119.820,379.200 119.600 C 379.200 119.380,378.480 119.200,377.600 119.200 C 376.720 119.200,376.000 119.020,376.000 118.800 C 376.000 118.552,373.876 118.400,370.427 118.400 L 364.854 118.400 363.355 120.300 M25.038 325.626 C 22.257 326.539,18.400 328.432,18.400 328.884 C 18.400 329.058,18.130 329.200,17.800 329.200 C 17.470 329.200,17.200 329.380,17.200 329.600 C 17.200 329.820,17.009 330.000,16.775 330.000 C 16.292 330.000,10.800 335.538,10.800 336.025 C 10.800 336.200,10.553 336.590,10.252 336.891 C 9.495 337.647,8.400 339.830,8.400 340.580 C 8.400 340.921,8.220 341.200,8.000 341.200 C 7.780 341.200,7.600 341.639,7.600 342.176 C 7.600 342.713,7.420 343.264,7.200 343.400 C 6.980 343.536,6.800 344.177,6.800 344.824 C 6.800 345.471,6.620 346.000,6.400 346.000 C 6.149 346.000,6.000 348.525,6.000 352.776 C 6.000 356.863,6.159 359.651,6.400 359.800 C 6.620 359.936,6.800 360.667,6.800 361.424 C 6.800 362.181,6.980 362.800,7.200 362.800 C 7.420 362.800,7.600 363.239,7.600 363.776 C 7.600 364.313,7.780 364.864,8.000 365.000 C 8.220 365.136,8.400 365.516,8.400 365.845 C 8.400 366.802,11.805 371.750,13.630 373.446 C 14.550 374.301,15.721 375.405,16.233 375.900 C 16.745 376.395,17.442 376.800,17.782 376.800 C 18.122 376.800,18.400 376.980,18.400 377.200 C 18.400 377.420,18.670 377.600,19.000 377.600 C 19.330 377.600,19.600 377.780,19.600 378.000 C 19.600 378.220,19.870 378.400,20.200 378.400 C 20.530 378.400,20.800 378.580,20.800 378.800 C 20.800 379.020,21.149 379.200,21.576 379.200 C 22.003 379.200,22.464 379.380,22.600 379.600 C 22.736 379.820,23.287 380.000,23.824 380.000 C 24.361 380.000,24.800 380.180,24.800 380.400 C 24.800 380.620,25.430 380.800,26.200 380.800 C 26.970 380.800,27.600 380.980,27.600 381.200 C 27.600 381.451,30.133 381.600,34.400 381.600 C 38.667 381.600,41.200 381.451,41.200 381.200 C 41.200 380.980,41.830 380.800,42.600 380.800 C 43.370 380.800,44.000 380.620,44.000 380.400 C 44.000 380.180,44.439 380.000,44.976 380.000 C 45.513 380.000,46.064 379.820,46.200 379.600 C 46.336 379.380,46.797 379.200,47.224 379.200 C 47.651 379.200,48.000 379.020,48.000 378.800 C 48.000 378.580,48.270 378.400,48.600 378.400 C 48.930 378.400,49.200 378.220,49.200 378.000 C 49.200 377.780,49.470 377.600,49.800 377.600 C 50.130 377.600,50.400 377.420,50.400 377.200 C 50.400 376.980,50.679 376.800,51.021 376.800 C 51.976 376.800,58.129 370.415,59.014 368.505 C 59.446 367.572,59.935 366.807,60.100 366.805 C 60.265 366.802,60.400 366.451,60.400 366.024 C 60.400 365.597,60.580 365.136,60.800 365.000 C 61.020 364.864,61.200 364.313,61.200 363.776 C 61.200 363.239,61.380 362.800,61.600 362.800 C 61.820 362.800,62.000 362.206,62.000 361.480 C 62.000 360.754,62.189 359.971,62.421 359.739 C 63.255 358.905,62.713 354.182,61.800 354.324 C 60.977 354.451,58.365 354.979,55.200 355.655 C 48.936 356.995,46.091 356.289,44.384 352.968 C 43.287 350.836,43.388 349.373,45.200 341.200 C 45.468 339.990,45.831 338.280,46.007 337.400 C 46.182 336.520,46.555 334.720,46.834 333.400 C 47.550 330.021,47.535 327.255,46.797 326.793 C 43.413 324.674,30.109 323.961,25.038 325.626 " stroke="none" fill="#d7f9fb" fill-rule="evenodd"></path><path id="path2" d="M266.600 64.234 C 266.600 64.289,269.300 67.102,272.600 70.484 C 275.900 73.867,279.230 77.405,280.000 78.347 C 280.770 79.288,281.749 80.406,282.175 80.829 C 282.941 81.590,282.534 81.600,250.070 81.600 L 217.189 81.600 213.870 84.900 C 212.045 86.715,210.293 88.785,209.978 89.500 C 209.663 90.215,209.269 90.800,209.102 90.800 C 208.936 90.800,208.800 91.072,208.800 91.405 C 208.800 91.738,208.642 92.323,208.449 92.705 C 207.234 95.110,206.588 104.774,207.600 105.400 C 207.820 105.536,208.004 106.132,208.009 106.724 C 208.020 108.131,209.277 110.863,210.868 112.941 C 212.728 115.368,283.371 186.101,286.200 188.368 C 294.425 194.958,305.308 195.158,313.200 188.865 C 315.795 186.796,337.846 164.501,339.180 162.598 C 340.889 160.161,342.000 158.055,342.000 157.255 C 342.000 156.858,342.135 156.399,342.300 156.234 C 343.042 155.495,343.438 149.874,342.949 147.046 C 341.518 138.784,343.795 141.429,302.647 100.228 C 282.821 80.376,266.600 64.179,266.600 64.234 M49.067 317.867 C 48.920 318.013,48.800 319.014,48.800 320.090 C 48.800 321.167,48.637 321.946,48.437 321.823 C 48.118 321.626,47.587 324.985,47.635 326.900 C 47.645 327.285,47.676 328.455,47.703 329.500 C 47.731 330.545,46.911 335.270,45.880 340.000 C 43.468 351.065,43.484 352.313,46.062 354.651 C 48.039 356.444,49.349 356.523,55.548 355.225 C 59.935 354.306,61.813 354.087,63.762 354.269 C 65.446 354.427,66.381 354.354,66.567 354.053 C 66.721 353.804,67.636 353.600,68.600 353.600 C 69.564 353.600,70.464 353.420,70.600 353.200 C 70.736 352.980,71.647 352.800,72.624 352.800 C 73.601 352.800,74.400 352.620,74.400 352.400 C 74.400 352.180,75.300 352.000,76.400 352.000 C 77.500 352.000,78.400 351.820,78.400 351.600 C 78.400 351.380,78.940 351.200,79.600 351.200 C 81.295 351.200,81.089 350.554,79.100 349.633 C 77.111 348.712,51.285 323.016,50.235 320.913 C 49.882 320.206,49.556 319.171,49.509 318.613 C 49.415 317.477,49.431 317.503,49.067 317.867 " stroke="none" fill="#a5a3a4" fill-rule="evenodd"></path><path id="path3" d="M245.482 56.989 C 239.510 58.295,238.228 59.287,223.547 73.957 C 207.101 90.391,205.918 92.300,206.547 101.400 C 206.764 104.535,207.821 109.719,208.015 108.600 C 208.175 107.679,207.906 105.772,207.566 105.420 C 206.603 104.420,207.251 95.076,208.449 92.705 C 208.642 92.323,208.800 91.738,208.800 91.405 C 208.800 91.072,208.936 90.800,209.102 90.800 C 209.269 90.800,209.663 90.215,209.978 89.500 C 210.293 88.785,212.045 86.715,213.870 84.900 L 217.189 81.600 250.070 81.600 C 282.534 81.600,282.941 81.590,282.175 80.829 C 281.749 80.406,280.770 79.288,280.000 78.347 C 278.623 76.662,268.227 65.826,264.900 62.606 C 263.964 61.701,262.459 60.519,261.554 59.980 C 260.648 59.441,259.608 58.730,259.240 58.400 C 258.873 58.070,258.219 57.767,257.787 57.726 C 257.354 57.685,255.830 57.377,254.400 57.040 C 251.312 56.313,248.642 56.298,245.482 56.989 M342.170 142.600 C 342.278 143.260,342.636 145.150,342.966 146.800 L 343.565 149.800 343.376 147.200 C 343.272 145.770,342.914 143.880,342.580 143.000 C 342.088 141.703,342.010 141.627,342.170 142.600 M342.972 153.209 C 342.819 154.754,342.539 156.114,342.347 156.232 C 342.156 156.351,342.000 156.791,342.000 157.211 C 342.000 158.053,340.912 160.130,339.178 162.598 C 337.713 164.684,316.094 186.501,313.084 188.930 C 310.583 190.950,310.389 191.335,312.595 189.900 C 314.269 188.811,337.780 165.260,339.450 163.000 C 340.546 161.515,341.673 159.358,342.738 156.707 C 343.236 155.466,343.832 150.400,343.479 150.400 C 343.352 150.400,343.124 151.664,342.972 153.209 M307.400 192.069 C 306.740 192.289,305.210 192.717,304.000 193.019 L 301.800 193.569 304.000 193.344 C 305.210 193.220,306.371 192.957,306.580 192.759 C 306.789 192.562,307.273 192.400,307.656 192.400 C 308.039 192.400,308.464 192.220,308.600 192.000 C 308.736 191.780,308.792 191.615,308.724 191.634 C 308.656 191.653,308.060 191.849,307.400 192.069 M292.200 192.291 C 292.640 192.393,293.180 192.613,293.400 192.780 C 294.020 193.249,299.690 194.103,300.805 193.895 C 301.508 193.763,301.330 193.689,300.200 193.640 C 299.320 193.603,297.430 193.296,296.000 192.958 C 294.570 192.620,292.950 192.290,292.400 192.225 C 291.850 192.159,291.760 192.189,292.200 192.291 M47.359 329.135 C 47.339 330.161,47.202 331.810,47.055 332.800 L 46.787 334.600 47.376 332.600 C 48.023 330.401,48.150 328.455,47.692 327.735 C 47.529 327.479,47.379 328.109,47.359 329.135 M46.178 336.178 C 46.027 336.981,45.994 337.727,46.104 337.837 C 46.214 337.947,46.427 337.381,46.578 336.578 C 46.728 335.775,46.762 335.028,46.652 334.918 C 46.542 334.808,46.328 335.375,46.178 336.178 M45.456 339.684 C 45.321 340.188,45.227 340.960,45.246 341.400 C 45.265 341.840,45.445 341.498,45.646 340.640 C 46.036 338.978,45.870 338.140,45.456 339.684 M44.676 343.210 C 44.530 343.755,44.427 344.650,44.446 345.200 C 44.471 345.918,44.584 345.757,44.849 344.627 C 45.255 342.895,45.100 341.625,44.676 343.210 M43.852 347.300 C 43.510 348.578,43.543 351.918,43.900 352.136 C 44.065 352.236,44.203 350.987,44.207 349.359 C 44.216 346.094,44.200 346.002,43.852 347.300 M44.413 353.033 C 44.430 353.520,45.213 354.463,46.200 355.185 C 46.640 355.506,46.460 355.147,45.800 354.387 C 45.140 353.626,44.555 352.928,44.500 352.835 C 44.445 352.743,44.406 352.832,44.413 353.033 M59.600 354.400 L 58.600 354.720 59.600 354.754 C 60.150 354.773,60.870 354.613,61.200 354.400 C 61.964 353.906,61.142 353.906,59.600 354.400 M55.600 355.200 L 54.600 355.520 55.600 355.532 C 56.150 355.538,56.960 355.389,57.400 355.200 L 58.200 354.856 57.400 354.868 C 56.960 354.874,56.150 355.024,55.600 355.200 M51.800 356.000 C 50.711 356.277,50.693 356.307,51.600 356.325 C 52.150 356.335,52.960 356.189,53.400 356.000 C 54.386 355.576,53.466 355.576,51.800 356.000 " stroke="none" fill="#acadad" fill-rule="evenodd"></path><path id="path4" d="M320.000 42.600 C 320.746 43.370,321.447 44.000,321.557 44.000 C 321.667 44.000,321.146 43.370,320.400 42.600 C 319.654 41.830,318.953 41.200,318.843 41.200 C 318.733 41.200,319.254 41.830,320.000 42.600 M329.200 51.800 C 331.723 54.330,333.877 56.400,333.987 56.400 C 334.097 56.400,332.123 54.330,329.600 51.800 C 327.077 49.270,324.923 47.200,324.813 47.200 C 324.703 47.200,326.677 49.270,329.200 51.800 M132.068 184.011 C 89.304 226.750,56.729 259.610,56.624 260.113 C 56.447 260.963,56.039 264.254,55.200 271.600 C 54.987 273.470,54.637 276.530,54.424 278.400 C 54.211 280.270,53.924 282.968,53.787 284.396 C 53.651 285.824,53.378 287.186,53.181 287.423 C 52.985 287.659,52.780 288.426,52.727 289.127 C 52.673 289.827,52.488 290.400,52.315 290.400 C 52.142 290.400,52.000 291.840,52.000 293.600 C 52.000 295.467,51.833 296.800,51.600 296.800 C 51.360 296.800,51.200 298.400,51.200 300.800 C 51.200 303.000,51.033 304.800,50.829 304.800 C 50.417 304.800,49.982 309.794,49.888 315.600 C 49.835 318.908,49.947 319.607,50.751 321.000 C 51.977 323.123,77.294 348.019,79.064 348.843 C 79.824 349.197,80.616 349.656,80.824 349.864 C 81.043 350.083,82.249 350.121,83.701 349.955 C 91.854 349.022,94.518 348.726,101.200 348.007 C 105.270 347.570,111.840 346.852,115.800 346.413 C 119.760 345.973,126.420 345.243,130.600 344.790 C 134.780 344.337,138.830 343.776,139.600 343.543 C 140.923 343.143,221.200 263.595,221.200 262.684 C 221.200 262.509,203.669 279.937,182.243 301.414 C 158.896 324.815,143.174 340.282,143.008 340.013 C 142.856 339.767,142.947 339.305,143.210 338.988 C 143.510 338.626,143.593 337.849,143.431 336.906 C 143.169 335.371,142.751 332.892,142.031 328.600 C 141.810 327.280,141.442 325.030,141.214 323.600 C 140.985 322.170,140.626 320.010,140.415 318.800 C 140.204 317.590,139.860 315.520,139.650 314.200 C 136.096 291.865,138.278 294.053,119.400 293.904 L 106.200 293.800 106.000 280.129 C 105.741 262.431,106.505 263.629,94.200 261.628 C 86.714 260.412,83.547 259.870,80.000 259.199 C 79.010 259.012,76.760 258.652,75.000 258.400 C 73.240 258.148,70.990 257.790,70.000 257.605 C 64.642 256.603,62.387 256.309,61.446 256.489 C 60.871 256.599,60.400 256.566,60.400 256.416 C 60.400 256.266,93.527 223.057,134.015 182.620 C 174.503 142.182,207.562 109.029,207.479 108.946 C 207.396 108.862,173.461 142.642,132.068 184.011 M351.997 131.900 L 342.200 141.800 352.100 132.003 C 357.545 126.615,362.000 122.160,362.000 122.103 C 362.000 121.820,361.101 122.701,351.997 131.900 M271.872 211.620 C 261.331 222.191,252.779 230.913,252.867 231.000 C 252.955 231.088,261.751 222.440,272.414 211.781 C 283.076 201.122,291.628 192.401,291.419 192.401 C 291.209 192.400,282.413 201.049,271.872 211.620 M249.049 234.400 C 247.353 236.160,246.110 237.600,246.288 237.600 C 246.758 237.600,252.572 231.638,252.334 231.400 C 252.224 231.290,250.745 232.640,249.049 234.400 M244.486 239.024 C 243.983 239.561,243.727 240.000,243.916 240.000 C 244.106 240.000,244.683 239.550,245.200 239.000 C 245.717 238.450,245.973 238.011,245.770 238.024 C 245.566 238.038,244.989 238.488,244.486 239.024 M240.463 243.060 C 239.068 244.490,237.998 245.731,238.085 245.819 C 238.173 245.906,239.489 244.722,241.011 243.189 C 242.533 241.655,243.603 240.414,243.389 240.430 C 243.175 240.447,241.858 241.631,240.463 243.060 M234.222 249.243 C 232.475 250.979,231.215 252.398,231.422 252.395 C 231.898 252.388,237.819 246.482,237.578 246.254 C 237.480 246.162,235.970 247.507,234.222 249.243 M228.086 255.424 C 227.583 255.961,227.327 256.400,227.516 256.400 C 227.706 256.400,228.283 255.950,228.800 255.400 C 229.317 254.850,229.573 254.411,229.370 254.424 C 229.166 254.438,228.589 254.888,228.086 255.424 M224.063 259.460 C 222.668 260.890,221.598 262.131,221.685 262.219 C 221.773 262.306,223.089 261.122,224.611 259.589 C 226.133 258.055,227.203 256.814,226.989 256.830 C 226.775 256.847,225.458 258.031,224.063 259.460 " stroke="none" fill="#f8d48c" fill-rule="evenodd"></path><path id="path5" d="M293.600 32.011 C 284.615 33.069,282.126 34.679,268.400 48.311 L 258.600 58.044 260.015 58.722 C 262.982 60.144,265.727 62.783,301.498 98.600 C 337.927 135.077,340.146 137.383,341.233 139.900 C 341.542 140.615,341.894 141.200,342.015 141.200 C 342.408 141.200,362.232 121.040,363.157 119.700 C 363.651 118.985,364.394 118.400,364.808 118.400 C 365.518 118.400,365.940 117.719,367.287 114.400 C 367.511 113.850,367.852 113.087,368.047 112.705 C 368.241 112.323,368.400 111.468,368.400 110.805 C 368.400 110.142,368.580 109.600,368.800 109.600 C 369.050 109.600,369.200 107.208,369.200 103.224 C 369.200 99.404,369.040 96.748,368.800 96.600 C 368.580 96.464,368.400 95.733,368.400 94.976 C 368.400 94.219,368.220 93.600,368.000 93.600 C 367.780 93.600,367.600 93.161,367.600 92.624 C 367.600 92.087,367.420 91.536,367.200 91.400 C 366.980 91.264,366.800 90.803,366.800 90.376 C 366.800 89.949,366.620 89.600,366.400 89.600 C 366.180 89.600,366.000 89.280,366.000 88.888 C 366.000 88.497,365.640 87.917,365.200 87.600 C 364.760 87.283,364.400 86.769,364.400 86.459 C 364.400 86.148,364.076 85.603,363.681 85.247 C 363.286 84.891,362.521 83.970,361.983 83.200 C 360.459 81.021,336.457 57.200,335.786 57.200 C 334.635 57.200,333.416 56.129,324.512 47.298 C 310.717 33.614,304.807 30.692,293.600 32.011 " stroke="none" fill="#fc6581" fill-rule="evenodd"></path></g></svg>